<svg width="20" height="20" viewBox="0 0 20 20" fill="none" xmlns="http://www.w3.org/2000/svg">
<g clip-path="url(#clip0_2222_164)">
<path d="M10 14.166V9.16602" stroke="#333333" stroke-width="1.5" stroke-linecap="round"/>
<path d="M10.0003 5.83236C10.4606 5.83236 10.8337 6.20545 10.8337 6.66569C10.8337 7.12593 10.4606 7.49902 10.0003 7.49902C9.54009 7.49902 9.16699 7.12593 9.16699 6.66569C9.16699 6.20545 9.54009 5.83236 10.0003 5.83236Z" fill="#333333"/>
<path d="M5.83366 2.78103C7.09987 2.0483 8.53739 1.66361 10.0003 1.66603C14.6028 1.66603 18.3337 5.39686 18.3337 9.99936C18.3337 14.6019 14.6028 18.3327 10.0003 18.3327C5.39783 18.3327 1.66699 14.6019 1.66699 9.99936C1.66699 8.48186 2.07283 7.05769 2.78199 5.83269" stroke="#333333" stroke-width="1.5" stroke-linecap="round"/>
</g>
<defs>
<clipPath id="clip0_2222_164">
<rect width="20" height="20" fill="white"/>
</clipPath>
</defs>
</svg>
